<?xml version="1.0" encoding="UTF-8"?>
<!-- Generator: Adobe Illustrator 21.1.0, SVG Export Plug-In . SVG Version: 6.00 Build 0)  -->
<svg xmlns="http://www.w3.org/2000/svg" xmlns:xlink="http://www.w3.org/1999/xlink" id="Layer_1" x="0px" y="0px" viewBox="0 0 128 95" style="enable-background:new 0 0 128 95;" xml:space="preserve">
<style type="text/css">
	.st0{fill:#A0CFEF;}
	.st1{fill:#B4C734;}
	.st2{fill:none;}
	.st3{fill:#23560A;}
	.st4{fill:#2570AF;}
	.st5{fill:#F6EB00;}
	.st6{fill:#0F5FA3;}
	.st7{fill:#84AF34;}
</style>
<title>Ixaris HR Website</title>
<path class="st0" d="M63.8,11.6c-10.1-0.1-19.9,3.6-27.3,10.5c7.5,6.8,17.2,10.6,27.3,10.5V11.6z"></path>
<path class="st0" d="M91.6,22.1C84,28.9,74.2,32.6,64,32.6c-10.2,0-20-3.7-27.6-10.5c-17.2,15.2-18.9,41.6-3.6,58.8  s41.6,18.9,58.8,3.6s18.9-41.6,3.6-58.8C94.1,24.4,92.9,23.2,91.6,22.1z"></path>
<path class="st1" d="M91.6,22.1c-15.8-14-39.4-14-55.2,0C44,28.9,53.8,32.6,64,32.6C74.2,32.6,84,28.9,91.6,22.1z"></path>
<path class="st2" d="M63.7,95C63.8,95,63.8,95,63.7,95c0,0-0.1,0-0.2,0C63.6,95,63.7,95,63.7,95z"></path>
<path class="st1" d="M63.8,95c0.1,0,0.1,0,0.2,0c10.2,0,20-3.7,27.6-10.5c-3.2-2.9-6.9-5.2-10.8-6.9C77.1,88.1,71,94.9,63.8,95z"></path>
<path class="st1" d="M47,77.7c-3.8,1.7-7.4,4-10.6,6.8c7.5,6.6,17.1,10.4,27.1,10.4C57,94.9,50.8,88.1,47,77.7z"></path>
<path class="st3" d="M80.8,77.6c-5.3-2.3-11-3.5-16.8-3.5c-0.1,0-0.3,0-0.3,0V95C70.8,95,77.2,88.1,80.8,77.6z"></path>
<path class="st3" d="M63.8,11.6v20.9c0,0,0.1,0,0.2,0c5.8,0,11.5-1.2,16.8-3.5C77.2,18.5,70.8,11.6,63.8,11.6z"></path>
<path class="st4" d="M63.8,95V74.1c-5.8,0-11.5,1.3-16.7,3.6C51,88.2,56.8,95,63.8,95z"></path>
<path class="st4" d="M47.1,28.9c5.3,2.4,11,3.6,16.7,3.6V11.6C56.8,11.6,51,18.5,47.1,28.9z"></path>
<path class="st5" d="M63.8,32.6c-5.8,0-11.5-1.3-16.8-3.6c-2.8,7.8-4.2,16.1-4.1,24.4c0,1,0,1.9,0.1,2.9l20.8-8.4V32.6z"></path>
<path class="st5" d="M47,77.7c5.3-2.4,11-3.6,16.8-3.6V58.6l-19.8,7.9C44.7,70.4,45.7,74.1,47,77.7z"></path>
<path class="st6" d="M32.9,60.3c-2.6,1-3.8,3.9-2.8,6.5s3.9,3.8,6.5,2.8c0,0,0,0,0.1,0l7.4-3c-0.6-3.4-1-6.9-1.1-10.3L32.9,60.3z"></path>
<path class="st1" d="M63.8,74.1c0,0,0.1,0,0.2,0c5.8,0,11.5,1.2,16.7,3.5c2.6-7.8,3.9-16,3.8-24.3c0-1,0-2-0.1-3l-20.7,8.3  L63.8,74.1L63.8,74.1z"></path>
<path class="st1" d="M80.8,29c-5.3,2.3-11,3.5-16.7,3.5c-0.1,0-0.2,0-0.2,0v15.3l19.7-7.9C82.9,36.2,82,32.6,80.8,29z"></path>
<path class="st6" d="M96.9,39.9c-1-2.6-3.9-3.8-6.5-2.8l-6.9,2.8c0.6,3.4,0.9,6.9,1,10.4l9.7-3.9C96.7,45.4,98,42.5,96.9,39.9  C96.9,39.9,96.9,39.9,96.9,39.9z"></path>
<path class="st3" d="M63.8,47.8v10.8l20.7-8.3c-0.1-3.5-0.5-6.9-1-10.4L63.8,47.8z"></path>
<path class="st7" d="M43,56.2c0.1,3.5,0.5,6.9,1.1,10.3l19.8-7.9V47.8L43,56.2z"></path>
</svg>
