<?xml version="1.0" standalone="no"?>
<!DOCTYPE svg PUBLIC "-//W3C//DTD SVG 20010904//EN"
 "http://www.w3.org/TR/2001/REC-SVG-20010904/DTD/svg10.dtd">
<svg version="1.0" xmlns="http://www.w3.org/2000/svg"
 width="228.000000pt" height="90.000000pt" viewBox="0 0 228.000000 90.000000"
 preserveAspectRatio="xMidYMid meet">
<metadata>
Created by potrace 1.15, written by Peter Selinger 2001-2017
</metadata>
<g transform="translate(0.000000,90.000000) scale(0.100000,-0.100000)"
fill="#000000" stroke="none">
<path d="M0 450 l0 -450 1140 0 1140 0 0 450 0 450 -1140 0 -1140 0 0 -450z
m522 386 c13 -31 5 -56 -20 -56 -39 0 -57 50 -24 69 25 15 31 13 44 -13z m-35
-203 c37 -17 78 -56 104 -97 16 -26 16 -32 3 -57 l-14 -28 -45 48 c-25 26 -45
55 -45 64 0 22 -28 47 -52 47 -22 0 -58 26 -58 42 0 12 66 0 107 -19z m-130
-22 c22 -16 43 -41 47 -55 4 -18 16 -28 38 -34 19 -5 47 -26 71 -55 l40 -47
-29 -42 c-16 -23 -58 -73 -94 -111 -63 -67 -67 -70 -100 -63 -53 10 -124 67
-150 121 -29 60 -24 165 10 221 23 36 93 94 115 94 7 0 30 -13 52 -29z m260
-193 c-3 -8 -6 -5 -6 6 -1 11 2 17 5 13 3 -3 4 -12 1 -19z m-18 -55 c6 -12 5
-26 -4 -43 -16 -31 -90 -100 -107 -100 -6 0 -2 -10 10 -23 26 -28 28 -50 6
-71 -22 -23 -51 -20 -69 8 -15 22 -15 27 2 59 20 39 134 185 145 186 4 1 11
-7 17 -16z"/>
</g>
</svg>
