<svg viewBox="0 0 3200 2800" width="3200" height="2800" data-js="animation__preloader" style="display: none;">
  <defs>
     <clipPath id="a">
        <path d="M0 0h3200v2800H0z"></path>
     </clipPath>
     <clipPath id="o">
        <path d="M0 0h3200v2400H0z"></path>
     </clipPath>
     <mask id="p">
        <path fill="#fff" d="M0 0h3200v2800H0V0m2490 367.5c-112.38 0-213.8 46.98-285.69 122.39 99.69 79.7 421.69 342.4 590.07 524.01a393.41 393.41 0 0 0 90.37-251.48c0-218.1-176.74-394.92-394.75-394.92"></path>
     </mask>
     <clipPath id="r">
        <path fill="#fff" d="M1615.7 1168a51.7 51.7 0 1 0 0 103.4 51.7 51.7 0 0 0 0-103.4"></path>
     </clipPath>
     <clipPath id="q">
        <path fill="#fff" d="M1615.7 1168a51.7 51.7 0 1 0 0 103.4 51.7 51.7 0 0 0 0-103.4"></path>
     </clipPath>
     <clipPath id="k">
        <path d="M0 0h3200v2400H0z"></path>
     </clipPath>
     <mask id="l">
        <path fill="#fff" d="M0 0h3200v2800H0V0m2490 367.5c-218.01.07-394.75 176.81-394.75 394.92 0 31.66 3.72 62.45 10.76 91.95.93 3.92 537.99-177.48 741.65-261.26C2768 437.45 2630 367.45 2490 367.5"></path>
     </mask>
     <clipPath id="n">
        <path fill="#fff" d="M1615.7 1168a51.7 51.7 0 1 0 0 103.4 51.7 51.7 0 0 0 0-103.4"></path>
     </clipPath>
     <clipPath id="m">
        <path fill="#fff" d="M1615.7 1168a51.7 51.7 0 1 0 0 103.4 51.7 51.7 0 0 0 0-103.4"></path>
     </clipPath>
     <clipPath id="g">
        <path d="M0 0h3200v2400H0z"></path>
     </clipPath>
     <mask id="h">
        <path fill="#fff" d="M0 0h3200v2800H0V0m2490 367.5c-218.01 0-394.75 176.81-394.75 394.92s176.74 394.92 394.75 394.92c112.77 0-4.79-215.33-8.68-419.36-3.64-190.42 113.92-370.48 8.68-370.48"></path>
     </mask>
     <clipPath id="j">
        <path fill="#fff" d="M1615.7 1168a51.7 51.7 0 1 0 0 103.4 51.7 51.7 0 0 0 0-103.4"></path>
     </clipPath>
     <clipPath id="i">
        <path fill="#fff" d="M1615.7 1168a51.7 51.7 0 1 0 0 103.4 51.7 51.7 0 0 0 0-103.4"></path>
     </clipPath>
     <clipPath id="e">
        <path d="M0 0h3200v2400H0z"></path>
     </clipPath>
     <clipPath id="f">
        <path fill="#fff" d="M2490 367.5c-218.01 0-394.75 176.81-394.75 394.92s176.74 394.92 394.75 394.92 394.75-176.8 394.75-394.92c0-218.1-176.74-394.92-394.75-394.92"></path>
     </clipPath>
     <clipPath id="c">
        <path d="M0 0h3200v2400H0z"></path>
     </clipPath>
     <mask id="d">
        <path fill="#fff" d="M0 0h3200v2800H0V0m2490 367.5c-218.01 0-394.75 176.81-394.75 394.92s176.74 394.92 394.75 394.92 394.75-176.8 394.75-394.92c0-218.1-176.74-394.92-394.75-394.92"></path>
     </mask>
     <mask id="b">
        <path fill="#fff" stroke="#fff" d="M440.65 6.78c-217.6 0-394 176.4-394 394s176.4 394 394 394 394-176.4 394-394-176.4-394-394-394" filter="null" stroke-width="2"></path>
     </mask>
  </defs>
  <g clip-path="url(#a)">
     <path stroke-miterlimit="10" stroke="#C4AEFA" stroke-width="11.76" d="M1413.98 1641.87s-22.44 24.4-34.2 66.74c-11.75 42.33-11.76 98.77-57.61 139.92-45.86 41.15-109.35 52.91-132.87 76.43" fill="none"></path>
     <path fill="#200445" d="M813.81 2055.16c-14.8 4.44-65.46 39.44-66.37 57.67-.92 18.23 6.7 42-5.42 56.6-12.12 14.6-49.3 44.95-47.28 81.15 2.01 36.2 20.19 130.19 68.04 123.04 47.85-7.14 65.8-82.26 65.25-109.83-.54-27.58 70.65-84.08 83.8-95.03 13.15-10.95-22.63-51.03-31.14-68.25-8.52-17.22-52.08-49.8-66.88-45.35z"></path>
     <path fill="#2B19C2" d="M813.81 2055.16c-14.8 4.44-65.46 39.44-66.37 57.67-.92 18.23 6.7 42-5.42 56.6-12.12 14.6-49.3 44.95-47.28 81.15 2.01 36.2 19.72 121.66 50.9 120.07-16.39-88.87-16.93-93.88-17.47-121.45-.54-27.58 27.73-65.82 42.4-74.6 14.69-8.77-3.92-42.48 17.6-75.44 54.11-37.8 62.38-35.97 25.64-44z"></path>
     <path fill="#200445" d="M861.07 2101.59c-50.34 30.9-30.04 94.67-9.01 102.27 21.03 7.6 222.77 16.45 337.17 16.3 119.52-.16 216.63 19.46 239.39-45.8-3.61-89.44-96.5-111.74-132.34-112.55-18.97-.43-384.88 8.88-435.21 39.78z"></path>
     <path fill="#2B19C2" d="M861.87 2101.72c4.21-.14 7.85.15 12.65-.35 44.42-4.44 77.9-11.2 97.8-14.43 27.76-4.49 73.12-16.96 186.86-3.34 110.3 13.2 68.3-44.32 49.73-48.17-18.58-3.86-296.81 35.1-347.04 66.3z"></path>
     <path fill="#200445" d="M645.93 2150.63c-15.32-4.27-78.65-1.67-89.47 13.69-10.82 15.36-20.86 48.78-39.04 55.77-18.19 6.98-74.89 22.1-91.26 55.51-16.38 33.42-47.34 126.7-.9 144.35 46.42 17.64 100.23-40.59 113.6-65.55 13.36-24.96 112.44-48.72 129.9-51.02 17.45-2.3 8.36-56.84 10.42-76.51 2.06-19.68-17.94-71.97-33.25-76.24z"></path>
     <path fill="#2B19C2" d="M645.93 2150.63c-15.32-4.27-78.65-1.67-89.47 13.69-10.82 15.36-20.86 48.78-39.04 55.77-18.19 6.98-74.89 22.1-91.26 55.51-16.38 33.42-43.47 118.83-14.76 133.07 29.98-87.79 34.26-91.63 47.63-116.6 13.37-24.95 66-52.33 83.56-52.81 17.55-.48 20.2-45.75 57.05-62.6 67.87-3.14 73.84 1.17 46.29-26.03z"></path>
     <path fill="#200445" d="M663.62 2212.29c-59.05 1.09-73.91 66.35-59.64 83.56 14.27 17.21 191.18 115.64 282.3 185.07 88.37 67.32 203.46 110.98 259.13 59.01 42.26-78.91-56.07-122.3-86.54-141.18-16.13-9.99-336.2-187.56-395.25-186.46z"></path>
     <path fill="#2B19C2" d="M663.44 2212.76c2.43 1.84 3.47 3.97 7.72 6.01 40.16 19.54 76.59 31.32 95.22 39.04 26.12 10.86 70.15 22.49 161.28 91.92 88.36 67.32 83.59-6.2 69.53-18.95-14.05-12.75-274.58-119.8-333.75-118.02z"></path>
     <path fill="#2B18C2" d="M1426.86 2187.6c-.18.3-.36.59-.6.88-53.1 82.7-314.92-42.58-339.26-52.31-.9-.36-38.65 16.05-38.79 16 2.78 3.66 240.26 351.5 69.89 405.66-156.52-26.42-344.21-349.55-379-475.54-35.06-126.88 17.37-214.94 17.37-214.94s7.48-7.63 24.25-19.47A412.05 412.05 0 0 1 815.4 1826c41.4-23.51 128.13-16.13 177.16-8.58 49.03 7.56 215.93 94.96 288.88 136.88 72.95 41.91 207.89 130.91 145.42 233.3z"></path>
     <path fill="#1F0445" d="M1119.17 2557.5c-122.88 40.02-378.13-348-412.92-474-35.05-126.87 50.21-216.15 50.21-216.15s7.49-7.63 24.26-19.47l34.5 115.66s-51.04 32.17-32.25 110.34c18.6 76.86 227.88 471.89 336.2 483.61zm307.1-369.02c-53.1 82.7-353.43-26.7-377.77-36.44l46.51-53.97s286.56 133.68 331.26 90.41z"></path>
     <path fill="#C4AEFA" d="M2685.98 1722.05l-80.48 14.26c1.12 0 14.7-.09 25.52 3.79 11.3 4.04 19.57 12.4 19.57 12.4l-73.57 15.3-84.44-7.7s-106.4-3.82-144.59-18.95c-38.18-15.14-77.65-37.6-77.65-37.6l-37.91-.84 1.24-29.86 2.5-59.92s93.58-47.55 126.62-50.59c33.18-3.06 137.39-20.17 132.62-6.16-4.78 14-18.93 30.28-30.64 32.54-11.71 2.26-48.61 13.1-48.61 13.1l-22.4 22.47 196.45 21.84s61.91-15.3 76.21-15.57c14.3-.27 25.55 15.42 25.55 15.42l-67.97 28.9s42.58-6.74 61.53-6.32c18.96.42 31.85 17.79 31.85 17.79l-50.53 20.98c1.08-.04 12.06-.22 15.5 7.06l3.63 7.66z"></path>
     <path fill="#936FF8" d="M2650.14 1752.39l-73.57 15.3-84.44-7.7s-106.41-3.8-144.6-18.95c-38.17-15.14-77.64-37.6-77.64-37.6l-37.91-.83 1.24-29.87 10.71-2.84s42.4 2.69 78.59 15.16c36.2 12.46 88.94 41.64 126.16 47.13 37.23 5.49 70.14 7.96 70.14 7.96s33.87 12.13 48.17 11.86c14.3-.27 60.57-7.7 83.15.38z"></path>
     <path fill="#C4AEFA" d="M1387.8 1632.65s86.42-41.25 159.69-16.46 201.22 88.76 321.21 91.7c120 2.93 363.85-47.7 363.85-47.7l3.11 51.7s-208.27 71.27-354.16 66.36c-145.9-4.9-346.87-77.2-424.88-104.28-78.02-27.07-119.86 6.47-119.86 6.47l51.04-47.79z"></path>
     <path stroke-miterlimit="10" stroke="#C4AEFA" stroke-width="11.76" d="M1294.7 1458.8s44.4-19.46 143.67 14.35c99.28 33.82 393.92 157.66 393.92 157.66l399.67-10.6" fill="none"></path>
     <path fill="#2B18C2" d="M2271.48 1708.42l-74.24 16.78-11.47-47.08-15.02-61.7 68.09-8.07 17.39 53.28 15.25 46.79z"></path>
     <path fill="#1F0445" d="M2271.48 1708.42l-74.24 16.78-11.47-47.08-.11-7.83 70.57-8.66 15.25 46.79z"></path>
     <path stroke-miterlimit="10" stroke="#C4AEFA" stroke-width="11.76" d="M-170.5 108.18l6.75-187.43L190.89-63.1" fill="none" transform="matrix(.9918 .13367 -.13336 .98946 568.31 1810.39)"></path>
     <path fill="#C4AEFA" d="M945.18 1606.4c-179.92 33.15-596.28 12.63-622.2 47.16-25.9 34.52-5.79 235.11-5.79 235.11l-46.59 29.42s-60.86-273.53-8.68-309.32c52.17-35.8 429.85-95.18 534.73-116.89 104.87-21.71 337.04-19.48 337.04-19.48l-36.74 80.54s-112.2 46.18-151.77 53.47z"></path>
     <path fill="#C4AEFA" d="M418.79 1712.34c2.02 2.64 4.18-13.68-12.62-30.14-16.8-16.45-40.12-19.54-40.12-19.54s39.5 24.2 42.8 53.1c3.3 28.9 3.23 38.39 3.23 38.39l6.71-41.81z"></path>
     <path fill="#2B18C2" d="M397.7 1889.83s-41.05-12.54-81.52-2.48c-.69.17-1.37.34-2.04.54-27.87 7.72-49.02-79.52-12.62-92.6 4.47-1.63 9.23-3 14.32-4.05 48.79-10.16 89.08 26 89.08 26l-7.23 72.59z"></path>
     <path fill="#1F0445" d="M314.14 1887.89c-27.87 7.72-44.55 28.88-44.55 28.88l-15.73-84.13s9.37-26.22 57.9-40.36l2.38 95.6z"></path>
     <g>
        <path fill="#C4AEFA" d="M469.2 2091.98l13.94 95.46s-17.67.18-27-15.77c-11.53-19.7-17.44-70.13-17.44-70.13l-27.37-62.57-71.6-1.17s-44.38-157.69 1.14-161.15c5.37-.4 10.29-.61 14.77-.66 33.59-.33 43.52 8.36 43.52 8.36s41 48.72 56.64 65.02c15.63 16.3 31.66 36.15 34.54 41.27 2.88 5.13 24.24 63.67 24.24 63.67s-11.97 7.56-27.8-3.5c-15.8-11.05-22.3-38.43-22.3-38.43l-21.23-18.25 25.95 97.85z"></path>
        <path fill="#9C81FB" d="M483.14 2187.44s-17.67.18-27-15.77c-11.53-19.7-18.26-70.2-18.26-70.2l-26.55-62.5-9.9 73.4-23.66 96.64s-8.1 6.1-19.18-4.26c-7.24-6.77-9.44-17.09-9.73-26.18a85.05 85.05 0 0 1 1.62-18.53l-.49 1.53-12.37 39s-25.42-5.2-24.93-27.82c.42-19.2 19.29-63.96 19.29-63.96l7.75-70.99-16.16 71.4-30.5 70.43s-15.51-1.8-15.9-23.2c-.3-15.18 13.72-56.82 13.72-56.82l6.19-53.22s-28.36-72.54-28.7-88c-.32-15.46 2.68-47.1 2.68-47.1s24.29-31.18 69.81-34.64c5.37-.4 10.29-.61 14.77-.66l2.53 1.35s-42.9 10.93-31.62 51.16c4.47 15.92 26.6 82.78 38.28 89.35 22.09 12.4 60.22 9.38 60.22 9.38l24.33 70.99s.56 79.72 33.76 89.22zm31.44-133.13s-11.98 7.56-27.8-3.5c-15.8-11.05-22.56-38.17-22.56-38.17l-21.03-18.54-11.96-34.04 41.8 33.5s9.67 26.57 17.47 40.56c7.82 13.98 24.08 20.2 24.08 20.2z"></path>
     </g>
     <path fill="#936FF8" d="M1070.07 1339.7s-3.3 45.98-18.48 91.11c-15.18 45.14-41.8 85.63-41.8 85.63l219.75-48.63-.94-32.91-119.42-103.63-39.1 8.43z"></path>
     <g>
        <path fill="#C5AEFB" d="M1353.92 1456.98s-.17.87-.57 2.47c-4.28 16.5-35.7 111.68-202.85 160.97-84.05 24.78-150.84 10.06-198.5-13.17-18.6-152.09 401.92-150.27 401.92-150.27z"></path>
        <path fill="#FFF" d="M1451.04 1582.77s-51.9 60.98-68.5 107.96c-16.6 46.99-22.82 105.76-45.09 133.93-51.92 65.68-136.6 77.2-174.32 110.01-37.73 32.83-62.58 79.89-131.98 93.7-125.44 24.94-203.68-4.5-245.82-45.82-36.14-35.39-7.79-68.48 2.07-94.52.99-2.58 7.74-79.15 7.74-79.15l-64.34-54.82 127.24-38.96s265.67 24.27 272.73 24.29c7.05.02 320.27-156.62 320.27-156.62z"></path>
        <path fill="#C4AEFA" d="M813.03 1835.6s56.44 63.5 98.77 89.36c42.33 25.87 134.05-4.7 134.05-4.7s-60.98 46.1-122.29 44.68c-101.12-2.36-115.23-58.8-115.23-58.8l4.7-70.54z"></path>
        <path fill="#936FF8" d="M1353.92 1456.98s-.17.87-.57 2.47c-25.18 7.43-63.26 19.16-84.1 28.1-32.4 13.9-69.37 46-70.52 47l14.09-42.3s-122.3 70.55-155.21 84.66c-21.36 9.15-73.89 20.27-107.12 28.34-56.37-27.45-84.54-64.79-84.54-64.79s105.67-70.94 226.78-90.93c121.11-19.99 261.19 7.45 261.19 7.45z"></path>
        <path fill="#C4AEFA" d="M792.2 1989.03c-39.45-34.53-53.06-90.8-43.23-116.78 0 0 12.28-13.75 23.8-29.18 1.53-2.03.43-5.04-.02-7.55-3.47-19.95-41.45-82.12-41.45-82.12s37.53 22.36 64.68 55.11c16.4 19.78 30.1 41.15 31.82 58.84 3.83 39.51-24.6 104.41-35.6 121.68z"></path>
     </g>
     <g>
        <path fill="#C5AEFB" d="M1339.77 1365.15c-.3 4.7-6.77 32.57-6.77 32.57s1.14 56.62-18.23 64.82c-6.8 2.9-17.82 3.75-31.58 3.1-25.42-.3-57.77-11.04-92.43-20.17-53.08-13.96-74-430.44-36.17-431.33 54.28-1.28 106.48 30.3 106.48 30.3s18.18 10.56 33.1 72.77c14.92 62.21 17.52 90.05 34.96 112.36 17.45 22.31 29.51 29.3 29.51 29.3l-28.5 34.99 8.26 35s-12.49 10.05-26.87 13.86a38.55 38.55 0 0 1-26.13-2.57s8.03 12.65 21.81 18.24c13.79 5.58 32.86 2.07 32.56 6.76z"></path>
        <path fill="#936FF8" d="M1283.19 1465.64c-25.43-1.16-60.2-7.48-94.86-15.8-53.39-12.8-96.33-79.13-96.33-79.13s-112.48-47.17-109.31-171.85c.95-37.8 12.14-69.55 28.81-95.45l167.45-.5c-.44 7.04 5 336 64.25 356.65 16.52 5.76 30.9 4.18 39.99 6.08z"></path>
        <path fill="#936FF8" d="M1211.14 1238.03s1.63-25.82 20.45-44.07c18.83-18.25 43.88-32.57 51.39-11.48 7.5 21.1-6.63 39.64-6.63 39.64s-12.54-6.68-15.58-5.1c-3.05 1.57-16.07 11.94-25.28 17.84s-24.35 3.17-24.35 3.17z"></path>
        <path fill="#1F0445" d="M1235.49 1234.86s17.03-27.2 36-28.95c4.68-.43 9.65 33.6 2.76 30.8-6.9-2.78-14.51-12.7-14.51-12.7l-24.25 10.85z"></path>
     </g>
     <g>
        <path fill="#832FEB" d="M1270.01 1052.06s-46.94 35.9-90.3 87.78c-24.2 28.94-47.28 62.85-60.48 98.28-36.88 98.99-59.64 123.47-59.64 123.47s-.6-19.82-71.57 10.6c-27.36 11.71-66.92-6.75-112.3 4.2-100.9 24.36-125.37 13.36-221.97-21.74-63.1-22.94-89.82-21.12-166.66-47.52-131.6-45.22-249.07-32.79-249.07-32.79s70.86-72.72 184.13-85.81c104.59-12.08 169.74-1.69 169.74-1.69s-83.77-41.52-231.38-42.25c-70.17-.35-179.88 50.25-181.08 50.62.98-2.15 68.95-111.61 198.24-154.77 63.88-21.32 107.13-20.73 139.44-16.46 37.8 5 82.48 18.26 152.25 7.9 40.96-6.07 98.04-50.2 181.5-85.6 64.78-27.48 173.09-60.86 278.6-54.2 261.59 16.53 140.55 159.98 140.55 159.98z"></path>
        <path fill="#1F0445" d="M796.44 1121.85c-.7 1.75-84.32 84.1-196 66.85-75.25-11.62-89.48-44.77-239.25-37.28-70.1 3.51-179.84 43.19-181.04 43.56 0 0 148.74-91 244.51-94.34 105.16-3.68 144.54 42.27 205.67 43.99 94.01 2.64 165.04-21.9 166.11-22.78zm383.83 17.38c-24.19 28.94-47.27 62.85-60.47 98.28-36.89 99-40.36 135.3-40.36 135.3s-154.55 51.46-348.67 23.86c-65.55-9.33-117.6-48.15-250.9-88.08-148.38-44.45-241.28-34.85-241.28-34.85 180.77-63.98 266.47-31.94 419.47-29.95 155.24 2.03 232.23-61.12 321.47-130.89 89.24-69.76 200.77 24.76 200.77 24.76l-.03 1.57z"></path>
     </g>
     <path fill="#936FF8" d="M1112.02 1277.72s-32.84-39.78-55.89-10.6c-23.05 29.18-13.12 95.78 29.43 93.76 42.54-2.03 26.46-83.16 26.46-83.16z"></path>
     <g>
        <path fill="#2B19C2" d="M2490 641.58c217.72 0 394.5 176.7 394.5 394.34s-176.78 394.34-394.5 394.34-394.5-176.7-394.5-394.34 176.78-394.34 394.5-394.34z"></path>
        <path fill="#1F0445" d="M2268.42 1172.8c90.11 131.4 250.05 199.41 469.1 170.95a392.85 392.85 0 0 1-247.41 87.2c-217.88 0-394.88-176.62-394.88-394.5 0-142.52 75.45-267.88 188.71-337.21-157.07 217.94-58.52 411.7-15.52 473.56z"></path>
     </g>
     <g mask="url(#b)" transform="translate(2049.34 635.14)">
        <path fill="#00ED99" d="M350.44 58.12c0 6.95 4.17 8.34 4.17 16.68s-8.34 16.67-18.07 25.01c-9.72 8.34-38.9 37.52-27.79 47.25 11.12 9.73 19.46-9.73 36.13-20.85 15.03-10.02 26.4-16.67 40.3-19.45 8.18-1.64 16.68 1.39 22.23-5.56 5.56-6.95 5.56-9.73 13.9-19.45 8.34-9.73 16.68-20.85 6.95-30.58-9.73-9.72-18.07-6.94-34.74-5.55-16.68 1.39-22.23 4.17-30.57 2.78-8.34-1.4-12.5 6.75-12.5 9.72zm-41.25-3.6a37 37 0 0 0-2.34-7.83c-6.54-15.77-21.28-19.97-21.28-19.97l-200.1 86.15-58.37 84.77S6.26 282.4 7.64 285.18c1.4 2.8 75.05-33.33 75.05-33.33s-8.33 65.32 2.78 48.63c11.12-16.69 12.28-30.77 26.4-47.26 2.96-3.43 6.6-8.46 11.71-13.86 9.27-9.88 23.33-21.05 46.65-26.43 24.53-5.66 51.44 2.77 56.98-15.3 3.75-12.23 12.52-26.37 29.18-31.94 16.67-5.58 54.19-50.02 34.73-62.54-15.23-9.8-48.64 50.04-62.53 22.23C214.7 97.6 275.85 96.2 285.57 82.3l9.74-13.9s18.06 8.35 13.88-13.88zm430.35-39.01L632.54 3l-66.7-1.4S552.39.25 550.62 22.67l-.08 1.16c-1.4 23.62 15.3 58.37 1.4 65.32-11.47 5.74-12.51 1.38-12.51 1.38s6.95-16.67 1.4-19.44c-5.56-2.79-38.92 11.11-41.7 22.23-2.78 11.11 13.89 31.96 2.78 51.42-11.12 19.46-34.81 15.43-44.48 34.73-11.1 22.23-2.76 30.57-9.71 44.47-6.95 13.9-21.01 25.7-20.86 36.13.1 5.73 8.35 12.5 22.25 5.56 13.88-6.95 43.08-30.57 59.75-29.18 16.67 1.4 25.01 13.9 34.73 12.5 9.74-1.39 16.69-9.73 16.69-9.73s-15.3-4.16-25.01-15.28c-8.2-9.36-8.35-19.45-8.35-19.45s44.47 36.12 65.3 44.47c20.86 8.32 52.82 5.55 73.65 27.78 20.86 22.25 75.05 138.97 75.05 138.97s25.01-12.5 31.96-36.12c6.95-23.64 6.95-33.36-4.16-50.03-10.88-16.34-29.75-37.98-30.55-38.9 1.06.45 35.16 15.41 63.89 23.6 7.75 2.22 16.3 3.75 24.66 4.8l44.82 2.15-132-305.7zm26.39 419.66s-29.18-8.34-59.75-37.52c-30.57-29.2-26.4-66.72-56.98-87.55-30.57-20.85-75.04-8.34-94.48-19.46-19.45-11.11-34.75-31.96-34.75-31.96-106.99-6.95-193.16 141.74-151.46 208.44 41.69 66.71 115.33 18.06 157.02 51.42 34.45 27.56 16.7 166.22 25.2 215.03 1.8 10.25 4.72 16.56 9.55 17.03 12.05 1.22 28.55-9.1 48.7-28.3h.01c26.3-25.05 58.83-65.26 95.8-114.82 65.32-87.55 61.14-172.3 61.14-172.3zM173.95 535.21c-27.1-19.7-55.27-92.85-61.35-109.27v-.04c-.02-.02-.02-.04-.02-.05-.77-2.05-1.16-3.19-1.16-3.19s-9.72-1.39-23.62-8.34-19.46-18.06-19.46-18.06-8.32 9.71-18.06 27.78c-9.72 18.06-5.56 19.46-5.56 19.46L35 563l86.16 126.45S249 767.29 237.88 726.98c-9.91-35.93-6.56-72.96-4.73-95.35.22-2.73.41-5.22.57-7.48 1.38-20.85 20.83-12.5 22.23-25.01 1.4-12.51-51.43-41.69-82-63.93z"></path>
        <path fill="#1F0445" fill-opacity="0.5" d="M191.27 564.81c121.88 183.97 352.88 210.97 497.4 143.8a392.85 392.85 0 0 1-247.4 87.2c-217.88 0-394.5-176.62-394.5-394.5 0-142.52 75.57-267.38 188.83-336.71C44.16 278.78 149.64 502 191.27 564.8z"></path>
     </g>
     <g clip-path="url(#c)" transform="translate(0 273.92)">
        <g mask="url(#d)" stroke="#41CA90" fill="none">
           <path stroke-width="12.08" d="M2286.61 736.73c19.87-293.71 129.9-526.32 237.57-518.18 115.57 8.82 196.64 252.49 176.77 546.2-19.86 293.7-132.33 525.1-248.7 517.42-108.5-7.17-185.5-251.74-165.64-545.44z"></path>
           <path stroke-width="13.24" d="M2400.88 576.04c290.63-138.8 566.3-186.44 607.19-88.46 38.68 89.6-154.28 280.33-445.98 419.62-291.03 138.94-556.89 187.63-602.57 93.84-45.07-92.7 150.36-286 441.36-425z"></path>
           <path stroke-width="12.19" d="M2586.3 633.8c228.93 189.28 379.5 381.52 312.6 463.16-55.58 67.67-308.65-7.36-537.59-196.64-228.93-189.27-349.56-414.97-291.47-488.79 61-73.37 287.52 33 516.45 222.28z"></path>
        </g>
     </g>
     <g clip-path="url(#e)" transform="translate(0 273.92)">
        <g clip-path="url(#f)" stroke="#FFF" fill="none">
           <path stroke-width="14.1" d="M2631.03 308.13c53.42 98.18 82.65 266.92 69.83 456.51-14.47 214-78.1 394.9-156.59 474.37"></path>
           <path stroke-width="15.44" d="M2987.43 585.86c-59.3 96.34-217.17 221.94-425.34 321.34-182.39 87.08-354.89 138.7-469.51 142.03"></path>
           <path stroke-width="14.22" d="M2834.5 1121.26c-103.1 4.12-295.42-73.97-473.19-220.94-129.12-106.75-223.79-225.09-271.37-321.23"></path>
        </g>
     </g>
     <g clip-path="url(#g)" transform="translate(0 273.92)">
        <g mask="url(#h)">
           <g clip-path="url(#i)" transform="translate(844.35 63.91)">
              <path fill="#8330ec" d="M0 0h3200v2400H0z"></path>
           </g>
           <g clip-path="url(#j)" transform="translate(967.35 -979.09)">
              <path fill="#8330ec" d="M0 0h3200v2400H0z"></path>
           </g>
        </g>
     </g>
     <g clip-path="url(#k)" transform="translate(0 273.92)">
        <g mask="url(#l)">
           <g clip-path="url(#m)" transform="translate(363.35 -325.09)">
              <path fill="#8330ec" d="M0 0h3200v2400H0z"></path>
           </g>
           <g clip-path="url(#n)" transform="translate(1319.35 -567.09)">
              <path fill="#8330ec" d="M0 0h3200v2400H0z"></path>
           </g>
        </g>
     </g>
     <g clip-path="url(#o)" transform="translate(0 273.92)">
        <g mask="url(#p)">
           <g clip-path="url(#q)" transform="translate(821.35 -699.09)">
              <path fill="#8330ec" d="M0 0h3200v2400H0z"></path>
           </g>
           <g clip-path="url(#r)" transform="translate(1295.03 -121.4)">
              <path fill="#8330ec" d="M0 0h3200v2400H0z"></path>
           </g>
        </g>
     </g>
  </g>
</svg>